<svg xmlns="http://www.w3.org/2000/svg" class="svg-icon iconfont public-key"><symbol id="a" viewBox="0 0 1024 1024"><path d="M512 102.4a409.6 409.6 0 110 819.2 409.6 409.6 0 010-819.2zM363.776 358.81c-77.26 0-77.26 0-106.752 81.51-15.718 43.725-15.718 43.725-15.718 104.755 0 78.746 0 78.746 26.214 125.44 31.488 56.013 31.488 56.013 96 56.013 71.526 0 71.526 0 103.014-68.454 21.76-47.77 21.76-47.77 21.76-120.781 0-77.005 0-77.005-24.012-121.242-30.976-57.241-30.976-57.241-100.506-57.241zm236.646 133.53H553.83l71.63 104.447-75.418 109.773h45.568l51.61-80.384 53.247 80.384h45.978l-75.418-109.824 72.192-103.424-43.776-.973-49.817 75.418-49.152-75.418zm-233.83-92.98c43.264 0 43.264 0 58.214 39.373 15.002 39.373 15.002 39.373 15.002 100.352 0 84.48 0 84.48-20.736 115.507s-20.736 31.027-55.757 31.027c-43.52 0-43.52 0-61.44-50.79C290.1 601.6 290.1 601.6 290.1 546.867c0-72.755 0-72.755 18.381-110.131 18.33-37.376 18.33-37.376 58.112-37.376z" fill="#f6c94a"/></symbol><use xmlns:xlink="http://www.w3.org/1999/xlink" xlink:href="#a"/></svg>