<svg xmlns="http://www.w3.org/2000/svg" viewBox="0 0 64 64"><circle cx="32" cy="32" fill="#eee" r="32"/><circle cx="32" cy="8" fill="hsl(123, 63%, 35%)" r="5"/><circle cx="32" cy="20" fill="hsl(106, 63%, 53%)" r="5"/><circle cx="21.607695154586736" cy="14" fill="hsl(22, 63%, 75%)" r="5"/><circle cx="11.215390309173472" cy="20" fill="hsl(191, 63%, 15%)" r="5"/><circle cx="21.607695154586736" cy="26" fill="hsl(174, 63%, 75%)" r="5"/><circle cx="11.215390309173472" cy="32" fill="hsl(106, 63%, 35%)" r="5"/><circle cx="11.215390309173472" cy="44" fill="hsl(135, 63%, 75%)" r="5"/><circle cx="21.607695154586736" cy="38" fill="hsl(264, 63%, 53%)" r="5"/><circle cx="21.607695154586736" cy="50" fill="hsl(292, 63%, 75%)" r="5"/><circle cx="32" cy="56" fill="hsl(135, 63%, 75%)" r="5"/><circle cx="32" cy="44" fill="hsl(264, 63%, 53%)" r="5"/><circle cx="42.392304845413264" cy="50" fill="hsl(106, 63%, 35%)" r="5"/><circle cx="52.78460969082653" cy="44" fill="hsl(191, 63%, 15%)" r="5"/><circle cx="42.392304845413264" cy="38" fill="hsl(174, 63%, 75%)" r="5"/><circle cx="52.78460969082653" cy="32" fill="hsl(22, 63%, 75%)" r="5"/><circle cx="52.78460969082653" cy="20" fill="hsl(123, 63%, 35%)" r="5"/><circle cx="42.392304845413264" cy="26" fill="hsl(106, 63%, 53%)" r="5"/><circle cx="42.392304845413264" cy="14" fill="hsl(292, 63%, 53%)" r="5"/><circle cx="32" cy="32" fill="hsl(253, 63%, 35%)" r="5"/></svg>